<mxfile host="app.diagrams.net" modified="2023-12-25T14:55:58.374Z" agent="Mozilla/5.0 (Windows NT 10.0; Win64; x64; rv:121.0) Gecko/20100101 Firefox/121.0" etag="mlW0m81EbcvNr93DTU2u" version="22.1.11" type="device">
  <diagram id="C5RBs43oDa-KdzZeNtuy" name="Page-1">
    <mxGraphModel dx="3271" dy="1192" grid="1" gridSize="10" guides="1" tooltips="1" connect="1" arrows="1" fold="1" page="1" pageScale="1" pageWidth="827" pageHeight="1169" math="0" shadow="0">
      <root>
        <mxCell id="WIyWlLk6GJQsqaUBKTNV-0" />
        <mxCell id="WIyWlLk6GJQsqaUBKTNV-1" parent="WIyWlLk6GJQsqaUBKTNV-0" />
        <mxCell id="zkfFHV4jXpPFQw0GAbJ--0" value="GlasacKontroler" style="swimlane;fontStyle=2;align=center;verticalAlign=top;childLayout=stackLayout;horizontal=1;startSize=26;horizontalStack=0;resizeParent=1;resizeLast=0;collapsible=1;marginBottom=0;rounded=0;shadow=0;strokeWidth=1;fillColor=#dae8fc;strokeColor=#6c8ebf;" parent="WIyWlLk6GJQsqaUBKTNV-1" vertex="1">
          <mxGeometry x="100" y="60" width="210" height="346" as="geometry">
            <mxRectangle x="230" y="140" width="160" height="26" as="alternateBounds" />
          </mxGeometry>
        </mxCell>
        <mxCell id="zkfFHV4jXpPFQw0GAbJ--1" value="id: int" style="text;align=left;verticalAlign=top;spacingLeft=4;spacingRight=4;overflow=hidden;rotatable=0;points=[[0,0.5],[1,0.5]];portConstraint=eastwest;" parent="zkfFHV4jXpPFQw0GAbJ--0" vertex="1">
          <mxGeometry y="26" width="210" height="26" as="geometry" />
        </mxCell>
        <mxCell id="taI3V9Jy6adw3DAFcxq5-160" value="jmbg:string" style="text;align=left;verticalAlign=top;spacingLeft=4;spacingRight=4;overflow=hidden;rotatable=0;points=[[0,0.5],[1,0.5]];portConstraint=eastwest;" vertex="1" parent="zkfFHV4jXpPFQw0GAbJ--0">
          <mxGeometry y="52" width="210" height="26" as="geometry" />
        </mxCell>
        <mxCell id="zkfFHV4jXpPFQw0GAbJ--2" value="ime: string" style="text;align=left;verticalAlign=top;spacingLeft=4;spacingRight=4;overflow=hidden;rotatable=0;points=[[0,0.5],[1,0.5]];portConstraint=eastwest;rounded=0;shadow=0;html=0;" parent="zkfFHV4jXpPFQw0GAbJ--0" vertex="1">
          <mxGeometry y="78" width="210" height="26" as="geometry" />
        </mxCell>
        <mxCell id="zkfFHV4jXpPFQw0GAbJ--3" value="prezime: string&#xa;" style="text;align=left;verticalAlign=top;spacingLeft=4;spacingRight=4;overflow=hidden;rotatable=0;points=[[0,0.5],[1,0.5]];portConstraint=eastwest;rounded=0;shadow=0;html=0;" parent="zkfFHV4jXpPFQw0GAbJ--0" vertex="1">
          <mxGeometry y="104" width="210" height="26" as="geometry" />
        </mxCell>
        <mxCell id="taI3V9Jy6adw3DAFcxq5-0" value="funkcioner: boolean" style="text;align=left;verticalAlign=top;spacingLeft=4;spacingRight=4;overflow=hidden;rotatable=0;points=[[0,0.5],[1,0.5]];portConstraint=eastwest;rounded=0;shadow=0;html=0;" vertex="1" parent="zkfFHV4jXpPFQw0GAbJ--0">
          <mxGeometry y="130" width="210" height="26" as="geometry" />
        </mxCell>
        <mxCell id="taI3V9Jy6adw3DAFcxq5-1" value="glasao: boolean" style="text;align=left;verticalAlign=top;spacingLeft=4;spacingRight=4;overflow=hidden;rotatable=0;points=[[0,0.5],[1,0.5]];portConstraint=eastwest;rounded=0;shadow=0;html=0;" vertex="1" parent="zkfFHV4jXpPFQw0GAbJ--0">
          <mxGeometry y="156" width="210" height="26" as="geometry" />
        </mxCell>
        <mxCell id="zkfFHV4jXpPFQw0GAbJ--4" value="" style="line;html=1;strokeWidth=1;align=left;verticalAlign=middle;spacingTop=-1;spacingLeft=3;spacingRight=3;rotatable=0;labelPosition=right;points=[];portConstraint=eastwest;" parent="zkfFHV4jXpPFQw0GAbJ--0" vertex="1">
          <mxGeometry y="182" width="210" height="8" as="geometry" />
        </mxCell>
        <mxCell id="zkfFHV4jXpPFQw0GAbJ--5" value="addGlasac(): void" style="text;align=left;verticalAlign=top;spacingLeft=4;spacingRight=4;overflow=hidden;rotatable=0;points=[[0,0.5],[1,0.5]];portConstraint=eastwest;" parent="zkfFHV4jXpPFQw0GAbJ--0" vertex="1">
          <mxGeometry y="190" width="210" height="26" as="geometry" />
        </mxCell>
        <mxCell id="taI3V9Jy6adw3DAFcxq5-2" value="updateGlasao(int id): void" style="text;align=left;verticalAlign=top;spacingLeft=4;spacingRight=4;overflow=hidden;rotatable=0;points=[[0,0.5],[1,0.5]];portConstraint=eastwest;" vertex="1" parent="zkfFHV4jXpPFQw0GAbJ--0">
          <mxGeometry y="216" width="210" height="26" as="geometry" />
        </mxCell>
        <mxCell id="taI3V9Jy6adw3DAFcxq5-3" value="getGlasac(int id): void" style="text;align=left;verticalAlign=top;spacingLeft=4;spacingRight=4;overflow=hidden;rotatable=0;points=[[0,0.5],[1,0.5]];portConstraint=eastwest;" vertex="1" parent="zkfFHV4jXpPFQw0GAbJ--0">
          <mxGeometry y="242" width="210" height="26" as="geometry" />
        </mxCell>
        <mxCell id="taI3V9Jy6adw3DAFcxq5-4" value="getGlasacByJmbg(string jmbg): void" style="text;align=left;verticalAlign=top;spacingLeft=4;spacingRight=4;overflow=hidden;rotatable=0;points=[[0,0.5],[1,0.5]];portConstraint=eastwest;" vertex="1" parent="zkfFHV4jXpPFQw0GAbJ--0">
          <mxGeometry y="268" width="210" height="26" as="geometry" />
        </mxCell>
        <mxCell id="taI3V9Jy6adw3DAFcxq5-5" value="getGlasaci(): List&lt;Glasac&gt;" style="text;align=left;verticalAlign=top;spacingLeft=4;spacingRight=4;overflow=hidden;rotatable=0;points=[[0,0.5],[1,0.5]];portConstraint=eastwest;" vertex="1" parent="zkfFHV4jXpPFQw0GAbJ--0">
          <mxGeometry y="294" width="210" height="26" as="geometry" />
        </mxCell>
        <mxCell id="taI3V9Jy6adw3DAFcxq5-6" value="countGlasaci(): long" style="text;align=left;verticalAlign=top;spacingLeft=4;spacingRight=4;overflow=hidden;rotatable=0;points=[[0,0.5],[1,0.5]];portConstraint=eastwest;" vertex="1" parent="zkfFHV4jXpPFQw0GAbJ--0">
          <mxGeometry y="320" width="210" height="26" as="geometry" />
        </mxCell>
        <mxCell id="taI3V9Jy6adw3DAFcxq5-7" value="&lt;&lt;Interface&gt;&gt;&#xa;GlasacLogic" style="swimlane;fontStyle=2;align=center;verticalAlign=top;childLayout=stackLayout;horizontal=1;startSize=40;horizontalStack=0;resizeParent=1;resizeLast=0;collapsible=1;marginBottom=0;rounded=0;shadow=0;strokeWidth=1;fillColor=#f8cecc;strokeColor=#b85450;" vertex="1" parent="WIyWlLk6GJQsqaUBKTNV-1">
          <mxGeometry x="100" y="460" width="230" height="234" as="geometry">
            <mxRectangle x="230" y="140" width="160" height="26" as="alternateBounds" />
          </mxGeometry>
        </mxCell>
        <mxCell id="taI3V9Jy6adw3DAFcxq5-14" value="addGlasac(string jmbg, string ime,Â &#xa;string prezime, boolean funkcioner,&#xa;boolean glasao): boolean" style="text;align=left;verticalAlign=top;spacingLeft=4;spacingRight=4;overflow=hidden;rotatable=0;points=[[0,0.5],[1,0.5]];portConstraint=eastwest;" vertex="1" parent="taI3V9Jy6adw3DAFcxq5-7">
          <mxGeometry y="40" width="230" height="54" as="geometry" />
        </mxCell>
        <mxCell id="taI3V9Jy6adw3DAFcxq5-15" value="updateGlasao(int id): boolean" style="text;align=left;verticalAlign=top;spacingLeft=4;spacingRight=4;overflow=hidden;rotatable=0;points=[[0,0.5],[1,0.5]];portConstraint=eastwest;" vertex="1" parent="taI3V9Jy6adw3DAFcxq5-7">
          <mxGeometry y="94" width="230" height="26" as="geometry" />
        </mxCell>
        <mxCell id="taI3V9Jy6adw3DAFcxq5-16" value="getGlasac(int id): Glasac" style="text;align=left;verticalAlign=top;spacingLeft=4;spacingRight=4;overflow=hidden;rotatable=0;points=[[0,0.5],[1,0.5]];portConstraint=eastwest;" vertex="1" parent="taI3V9Jy6adw3DAFcxq5-7">
          <mxGeometry y="120" width="230" height="26" as="geometry" />
        </mxCell>
        <mxCell id="taI3V9Jy6adw3DAFcxq5-17" value="getGlasacByJmbg(string jmbg): Glasac" style="text;align=left;verticalAlign=top;spacingLeft=4;spacingRight=4;overflow=hidden;rotatable=0;points=[[0,0.5],[1,0.5]];portConstraint=eastwest;" vertex="1" parent="taI3V9Jy6adw3DAFcxq5-7">
          <mxGeometry y="146" width="230" height="26" as="geometry" />
        </mxCell>
        <mxCell id="taI3V9Jy6adw3DAFcxq5-18" value="getGlasaci(): List&lt;Glasac&gt;" style="text;align=left;verticalAlign=top;spacingLeft=4;spacingRight=4;overflow=hidden;rotatable=0;points=[[0,0.5],[1,0.5]];portConstraint=eastwest;" vertex="1" parent="taI3V9Jy6adw3DAFcxq5-7">
          <mxGeometry y="172" width="230" height="26" as="geometry" />
        </mxCell>
        <mxCell id="taI3V9Jy6adw3DAFcxq5-19" value="countGlasaci(): long" style="text;align=left;verticalAlign=top;spacingLeft=4;spacingRight=4;overflow=hidden;rotatable=0;points=[[0,0.5],[1,0.5]];portConstraint=eastwest;" vertex="1" parent="taI3V9Jy6adw3DAFcxq5-7">
          <mxGeometry y="198" width="230" height="26" as="geometry" />
        </mxCell>
        <mxCell id="taI3V9Jy6adw3DAFcxq5-21" value="" style="endArrow=open;endFill=1;endSize=12;html=1;rounded=0;exitX=0.503;exitY=1;exitDx=0;exitDy=0;exitPerimeter=0;entryX=0.864;entryY=0.993;entryDx=0;entryDy=0;entryPerimeter=0;" edge="1" parent="WIyWlLk6GJQsqaUBKTNV-1" source="taI3V9Jy6adw3DAFcxq5-6" target="taI3V9Jy6adw3DAFcxq5-23">
          <mxGeometry width="160" relative="1" as="geometry">
            <mxPoint x="230" y="410" as="sourcePoint" />
            <mxPoint x="390" y="410" as="targetPoint" />
          </mxGeometry>
        </mxCell>
        <mxCell id="taI3V9Jy6adw3DAFcxq5-22" value="&lt;div&gt;&lt;br&gt;&lt;/div&gt;glasacLogic" style="text;html=1;align=center;verticalAlign=middle;resizable=0;points=[];autosize=1;" vertex="1" parent="WIyWlLk6GJQsqaUBKTNV-1">
          <mxGeometry x="200" y="425" width="90" height="40" as="geometry" />
        </mxCell>
        <mxCell id="taI3V9Jy6adw3DAFcxq5-23" value="1" style="text;html=1;align=center;verticalAlign=middle;resizable=0;points=[];autosize=1;" vertex="1" parent="WIyWlLk6GJQsqaUBKTNV-1">
          <mxGeometry x="180" y="430" width="30" height="30" as="geometry" />
        </mxCell>
        <mxCell id="taI3V9Jy6adw3DAFcxq5-25" value="GlasacLogicImpl" style="swimlane;fontStyle=2;align=center;verticalAlign=top;childLayout=stackLayout;horizontal=1;startSize=26;horizontalStack=0;resizeParent=1;resizeLast=0;collapsible=1;marginBottom=0;rounded=0;shadow=0;strokeWidth=1;fillColor=#d5e8d4;strokeColor=#82b366;" vertex="1" parent="WIyWlLk6GJQsqaUBKTNV-1">
          <mxGeometry x="110" y="760" width="210" height="220" as="geometry">
            <mxRectangle x="230" y="140" width="160" height="26" as="alternateBounds" />
          </mxGeometry>
        </mxCell>
        <mxCell id="taI3V9Jy6adw3DAFcxq5-26" value="em: EntityManager" style="text;align=left;verticalAlign=top;spacingLeft=4;spacingRight=4;overflow=hidden;rotatable=0;points=[[0,0.5],[1,0.5]];portConstraint=eastwest;" vertex="1" parent="taI3V9Jy6adw3DAFcxq5-25">
          <mxGeometry y="26" width="210" height="26" as="geometry" />
        </mxCell>
        <mxCell id="taI3V9Jy6adw3DAFcxq5-31" value="" style="line;html=1;strokeWidth=1;align=left;verticalAlign=middle;spacingTop=-1;spacingLeft=3;spacingRight=3;rotatable=0;labelPosition=right;points=[];portConstraint=eastwest;" vertex="1" parent="taI3V9Jy6adw3DAFcxq5-25">
          <mxGeometry y="52" width="210" height="8" as="geometry" />
        </mxCell>
        <mxCell id="taI3V9Jy6adw3DAFcxq5-32" value="addGlasac(): void" style="text;align=left;verticalAlign=top;spacingLeft=4;spacingRight=4;overflow=hidden;rotatable=0;points=[[0,0.5],[1,0.5]];portConstraint=eastwest;" vertex="1" parent="taI3V9Jy6adw3DAFcxq5-25">
          <mxGeometry y="60" width="210" height="26" as="geometry" />
        </mxCell>
        <mxCell id="taI3V9Jy6adw3DAFcxq5-33" value="updateGlasao(int id): void" style="text;align=left;verticalAlign=top;spacingLeft=4;spacingRight=4;overflow=hidden;rotatable=0;points=[[0,0.5],[1,0.5]];portConstraint=eastwest;" vertex="1" parent="taI3V9Jy6adw3DAFcxq5-25">
          <mxGeometry y="86" width="210" height="26" as="geometry" />
        </mxCell>
        <mxCell id="taI3V9Jy6adw3DAFcxq5-34" value="getGlasac(int id): void" style="text;align=left;verticalAlign=top;spacingLeft=4;spacingRight=4;overflow=hidden;rotatable=0;points=[[0,0.5],[1,0.5]];portConstraint=eastwest;" vertex="1" parent="taI3V9Jy6adw3DAFcxq5-25">
          <mxGeometry y="112" width="210" height="26" as="geometry" />
        </mxCell>
        <mxCell id="taI3V9Jy6adw3DAFcxq5-35" value="getGlasacByJmbg(string jmbg): void" style="text;align=left;verticalAlign=top;spacingLeft=4;spacingRight=4;overflow=hidden;rotatable=0;points=[[0,0.5],[1,0.5]];portConstraint=eastwest;" vertex="1" parent="taI3V9Jy6adw3DAFcxq5-25">
          <mxGeometry y="138" width="210" height="26" as="geometry" />
        </mxCell>
        <mxCell id="taI3V9Jy6adw3DAFcxq5-36" value="getGlasaci(): List&lt;Glasac&gt;" style="text;align=left;verticalAlign=top;spacingLeft=4;spacingRight=4;overflow=hidden;rotatable=0;points=[[0,0.5],[1,0.5]];portConstraint=eastwest;" vertex="1" parent="taI3V9Jy6adw3DAFcxq5-25">
          <mxGeometry y="164" width="210" height="26" as="geometry" />
        </mxCell>
        <mxCell id="taI3V9Jy6adw3DAFcxq5-37" value="countGlasaci(): long" style="text;align=left;verticalAlign=top;spacingLeft=4;spacingRight=4;overflow=hidden;rotatable=0;points=[[0,0.5],[1,0.5]];portConstraint=eastwest;" vertex="1" parent="taI3V9Jy6adw3DAFcxq5-25">
          <mxGeometry y="190" width="210" height="26" as="geometry" />
        </mxCell>
        <mxCell id="taI3V9Jy6adw3DAFcxq5-38" value="" style="endArrow=block;dashed=1;endFill=0;endSize=12;html=1;rounded=0;entryX=0.5;entryY=1;entryDx=0;entryDy=0;exitX=0.5;exitY=0;exitDx=0;exitDy=0;" edge="1" parent="WIyWlLk6GJQsqaUBKTNV-1" source="taI3V9Jy6adw3DAFcxq5-25" target="taI3V9Jy6adw3DAFcxq5-7">
          <mxGeometry width="160" relative="1" as="geometry">
            <mxPoint x="260" y="740" as="sourcePoint" />
            <mxPoint x="420" y="740" as="targetPoint" />
          </mxGeometry>
        </mxCell>
        <mxCell id="taI3V9Jy6adw3DAFcxq5-39" value="LisitcKontroler" style="swimlane;fontStyle=2;align=center;verticalAlign=top;childLayout=stackLayout;horizontal=1;startSize=26;horizontalStack=0;resizeParent=1;resizeLast=0;collapsible=1;marginBottom=0;rounded=0;shadow=0;strokeWidth=1;fillColor=#dae8fc;strokeColor=#6c8ebf;" vertex="1" parent="WIyWlLk6GJQsqaUBKTNV-1">
          <mxGeometry x="520" y="60" width="250" height="220" as="geometry">
            <mxRectangle x="230" y="140" width="160" height="26" as="alternateBounds" />
          </mxGeometry>
        </mxCell>
        <mxCell id="taI3V9Jy6adw3DAFcxq5-40" value="brStranke: int" style="text;align=left;verticalAlign=top;spacingLeft=4;spacingRight=4;overflow=hidden;rotatable=0;points=[[0,0.5],[1,0.5]];portConstraint=eastwest;" vertex="1" parent="taI3V9Jy6adw3DAFcxq5-39">
          <mxGeometry y="26" width="250" height="26" as="geometry" />
        </mxCell>
        <mxCell id="taI3V9Jy6adw3DAFcxq5-41" value="nazivStranke: string" style="text;align=left;verticalAlign=top;spacingLeft=4;spacingRight=4;overflow=hidden;rotatable=0;points=[[0,0.5],[1,0.5]];portConstraint=eastwest;rounded=0;shadow=0;html=0;" vertex="1" parent="taI3V9Jy6adw3DAFcxq5-39">
          <mxGeometry y="52" width="250" height="26" as="geometry" />
        </mxCell>
        <mxCell id="taI3V9Jy6adw3DAFcxq5-42" value="glasacJmbg: string&#xa;" style="text;align=left;verticalAlign=top;spacingLeft=4;spacingRight=4;overflow=hidden;rotatable=0;points=[[0,0.5],[1,0.5]];portConstraint=eastwest;rounded=0;shadow=0;html=0;" vertex="1" parent="taI3V9Jy6adw3DAFcxq5-39">
          <mxGeometry y="78" width="250" height="26" as="geometry" />
        </mxCell>
        <mxCell id="taI3V9Jy6adw3DAFcxq5-45" value="" style="line;html=1;strokeWidth=1;align=left;verticalAlign=middle;spacingTop=-1;spacingLeft=3;spacingRight=3;rotatable=0;labelPosition=right;points=[];portConstraint=eastwest;" vertex="1" parent="taI3V9Jy6adw3DAFcxq5-39">
          <mxGeometry y="104" width="250" height="8" as="geometry" />
        </mxCell>
        <mxCell id="taI3V9Jy6adw3DAFcxq5-46" value="dodajListic(string stranka, string jmbg): void" style="text;align=left;verticalAlign=top;spacingLeft=4;spacingRight=4;overflow=hidden;rotatable=0;points=[[0,0.5],[1,0.5]];portConstraint=eastwest;" vertex="1" parent="taI3V9Jy6adw3DAFcxq5-39">
          <mxGeometry y="112" width="250" height="26" as="geometry" />
        </mxCell>
        <mxCell id="taI3V9Jy6adw3DAFcxq5-47" value="countIzlaznost(): double" style="text;align=left;verticalAlign=top;spacingLeft=4;spacingRight=4;overflow=hidden;rotatable=0;points=[[0,0.5],[1,0.5]];portConstraint=eastwest;" vertex="1" parent="taI3V9Jy6adw3DAFcxq5-39">
          <mxGeometry y="138" width="250" height="26" as="geometry" />
        </mxCell>
        <mxCell id="taI3V9Jy6adw3DAFcxq5-48" value="countGlasovi(): int" style="text;align=left;verticalAlign=top;spacingLeft=4;spacingRight=4;overflow=hidden;rotatable=0;points=[[0,0.5],[1,0.5]];portConstraint=eastwest;" vertex="1" parent="taI3V9Jy6adw3DAFcxq5-39">
          <mxGeometry y="164" width="250" height="26" as="geometry" />
        </mxCell>
        <mxCell id="taI3V9Jy6adw3DAFcxq5-49" value="getListici(): List&lt;GlasackiListic&gt;" style="text;align=left;verticalAlign=top;spacingLeft=4;spacingRight=4;overflow=hidden;rotatable=0;points=[[0,0.5],[1,0.5]];portConstraint=eastwest;" vertex="1" parent="taI3V9Jy6adw3DAFcxq5-39">
          <mxGeometry y="190" width="250" height="26" as="geometry" />
        </mxCell>
        <mxCell id="taI3V9Jy6adw3DAFcxq5-52" value="StrankaController" style="swimlane;fontStyle=2;align=center;verticalAlign=top;childLayout=stackLayout;horizontal=1;startSize=26;horizontalStack=0;resizeParent=1;resizeLast=0;collapsible=1;marginBottom=0;rounded=0;shadow=0;strokeWidth=1;fillColor=#dae8fc;strokeColor=#6c8ebf;" vertex="1" parent="WIyWlLk6GJQsqaUBKTNV-1">
          <mxGeometry x="1070" y="70" width="210" height="346" as="geometry">
            <mxRectangle x="230" y="140" width="160" height="26" as="alternateBounds" />
          </mxGeometry>
        </mxCell>
        <mxCell id="taI3V9Jy6adw3DAFcxq5-53" value="id: int" style="text;align=left;verticalAlign=top;spacingLeft=4;spacingRight=4;overflow=hidden;rotatable=0;points=[[0,0.5],[1,0.5]];portConstraint=eastwest;" vertex="1" parent="taI3V9Jy6adw3DAFcxq5-52">
          <mxGeometry y="26" width="210" height="26" as="geometry" />
        </mxCell>
        <mxCell id="taI3V9Jy6adw3DAFcxq5-54" value="naziv: string" style="text;align=left;verticalAlign=top;spacingLeft=4;spacingRight=4;overflow=hidden;rotatable=0;points=[[0,0.5],[1,0.5]];portConstraint=eastwest;rounded=0;shadow=0;html=0;" vertex="1" parent="taI3V9Jy6adw3DAFcxq5-52">
          <mxGeometry y="52" width="210" height="26" as="geometry" />
        </mxCell>
        <mxCell id="taI3V9Jy6adw3DAFcxq5-55" value="nosilacListe: string&#xa;" style="text;align=left;verticalAlign=top;spacingLeft=4;spacingRight=4;overflow=hidden;rotatable=0;points=[[0,0.5],[1,0.5]];portConstraint=eastwest;rounded=0;shadow=0;html=0;" vertex="1" parent="taI3V9Jy6adw3DAFcxq5-52">
          <mxGeometry y="78" width="210" height="26" as="geometry" />
        </mxCell>
        <mxCell id="taI3V9Jy6adw3DAFcxq5-56" value="skupljeniPotpisi: int" style="text;align=left;verticalAlign=top;spacingLeft=4;spacingRight=4;overflow=hidden;rotatable=0;points=[[0,0.5],[1,0.5]];portConstraint=eastwest;rounded=0;shadow=0;html=0;" vertex="1" parent="taI3V9Jy6adw3DAFcxq5-52">
          <mxGeometry y="104" width="210" height="26" as="geometry" />
        </mxCell>
        <mxCell id="taI3V9Jy6adw3DAFcxq5-57" value="brojClanova: int" style="text;align=left;verticalAlign=top;spacingLeft=4;spacingRight=4;overflow=hidden;rotatable=0;points=[[0,0.5],[1,0.5]];portConstraint=eastwest;rounded=0;shadow=0;html=0;" vertex="1" parent="taI3V9Jy6adw3DAFcxq5-52">
          <mxGeometry y="130" width="210" height="26" as="geometry" />
        </mxCell>
        <mxCell id="taI3V9Jy6adw3DAFcxq5-58" value="" style="line;html=1;strokeWidth=1;align=left;verticalAlign=middle;spacingTop=-1;spacingLeft=3;spacingRight=3;rotatable=0;labelPosition=right;points=[];portConstraint=eastwest;" vertex="1" parent="taI3V9Jy6adw3DAFcxq5-52">
          <mxGeometry y="156" width="210" height="8" as="geometry" />
        </mxCell>
        <mxCell id="taI3V9Jy6adw3DAFcxq5-59" value="addStranka(): void" style="text;align=left;verticalAlign=top;spacingLeft=4;spacingRight=4;overflow=hidden;rotatable=0;points=[[0,0.5],[1,0.5]];portConstraint=eastwest;" vertex="1" parent="taI3V9Jy6adw3DAFcxq5-52">
          <mxGeometry y="164" width="210" height="26" as="geometry" />
        </mxCell>
        <mxCell id="taI3V9Jy6adw3DAFcxq5-60" value="getStrankaById(int id): void" style="text;align=left;verticalAlign=top;spacingLeft=4;spacingRight=4;overflow=hidden;rotatable=0;points=[[0,0.5],[1,0.5]];portConstraint=eastwest;" vertex="1" parent="taI3V9Jy6adw3DAFcxq5-52">
          <mxGeometry y="190" width="210" height="26" as="geometry" />
        </mxCell>
        <mxCell id="taI3V9Jy6adw3DAFcxq5-61" value="getStrankaByNaziv(string naziv): void" style="text;align=left;verticalAlign=top;spacingLeft=4;spacingRight=4;overflow=hidden;rotatable=0;points=[[0,0.5],[1,0.5]];portConstraint=eastwest;" vertex="1" parent="taI3V9Jy6adw3DAFcxq5-52">
          <mxGeometry y="216" width="210" height="26" as="geometry" />
        </mxCell>
        <mxCell id="taI3V9Jy6adw3DAFcxq5-62" value="getGlasacByJmbg(string jmbg): void" style="text;align=left;verticalAlign=top;spacingLeft=4;spacingRight=4;overflow=hidden;rotatable=0;points=[[0,0.5],[1,0.5]];portConstraint=eastwest;" vertex="1" parent="taI3V9Jy6adw3DAFcxq5-52">
          <mxGeometry y="242" width="210" height="26" as="geometry" />
        </mxCell>
        <mxCell id="taI3V9Jy6adw3DAFcxq5-63" value="getStranke(): List&lt;Stranka&gt;" style="text;align=left;verticalAlign=top;spacingLeft=4;spacingRight=4;overflow=hidden;rotatable=0;points=[[0,0.5],[1,0.5]];portConstraint=eastwest;" vertex="1" parent="taI3V9Jy6adw3DAFcxq5-52">
          <mxGeometry y="268" width="210" height="26" as="geometry" />
        </mxCell>
        <mxCell id="taI3V9Jy6adw3DAFcxq5-64" value="getStrankeIds(): List&lt;int&gt;" style="text;align=left;verticalAlign=top;spacingLeft=4;spacingRight=4;overflow=hidden;rotatable=0;points=[[0,0.5],[1,0.5]];portConstraint=eastwest;" vertex="1" parent="taI3V9Jy6adw3DAFcxq5-52">
          <mxGeometry y="294" width="210" height="26" as="geometry" />
        </mxCell>
        <mxCell id="taI3V9Jy6adw3DAFcxq5-65" value="dodajPotpis(int id): void" style="text;align=left;verticalAlign=top;spacingLeft=4;spacingRight=4;overflow=hidden;rotatable=0;points=[[0,0.5],[1,0.5]];portConstraint=eastwest;" vertex="1" parent="taI3V9Jy6adw3DAFcxq5-52">
          <mxGeometry y="320" width="210" height="26" as="geometry" />
        </mxCell>
        <mxCell id="taI3V9Jy6adw3DAFcxq5-66" value="&lt;&lt;Interface&gt;&gt;&#xa;StrankaLogic" style="swimlane;fontStyle=2;align=center;verticalAlign=top;childLayout=stackLayout;horizontal=1;startSize=40;horizontalStack=0;resizeParent=1;resizeLast=0;collapsible=1;marginBottom=0;rounded=0;shadow=0;strokeWidth=1;fillColor=#f8cecc;strokeColor=#b85450;" vertex="1" parent="WIyWlLk6GJQsqaUBKTNV-1">
          <mxGeometry x="1070" y="496" width="230" height="210" as="geometry">
            <mxRectangle x="230" y="140" width="160" height="26" as="alternateBounds" />
          </mxGeometry>
        </mxCell>
        <mxCell id="taI3V9Jy6adw3DAFcxq5-67" value="addStranka(string naziv, string nosilac,Â &#xa;int skupljeniPotpisi, int brojClanova): bool" style="text;align=left;verticalAlign=top;spacingLeft=4;spacingRight=4;overflow=hidden;rotatable=0;points=[[0,0.5],[1,0.5]];portConstraint=eastwest;" vertex="1" parent="taI3V9Jy6adw3DAFcxq5-66">
          <mxGeometry y="40" width="230" height="40" as="geometry" />
        </mxCell>
        <mxCell id="taI3V9Jy6adw3DAFcxq5-69" value="getStranka(int id): Stranka" style="text;align=left;verticalAlign=top;spacingLeft=4;spacingRight=4;overflow=hidden;rotatable=0;points=[[0,0.5],[1,0.5]];portConstraint=eastwest;" vertex="1" parent="taI3V9Jy6adw3DAFcxq5-66">
          <mxGeometry y="80" width="230" height="26" as="geometry" />
        </mxCell>
        <mxCell id="taI3V9Jy6adw3DAFcxq5-70" value="getGlasacByNaziv(string naziv): Stranka" style="text;align=left;verticalAlign=top;spacingLeft=4;spacingRight=4;overflow=hidden;rotatable=0;points=[[0,0.5],[1,0.5]];portConstraint=eastwest;" vertex="1" parent="taI3V9Jy6adw3DAFcxq5-66">
          <mxGeometry y="106" width="230" height="26" as="geometry" />
        </mxCell>
        <mxCell id="taI3V9Jy6adw3DAFcxq5-71" value="getStranke(): List&lt;Stranka&gt;" style="text;align=left;verticalAlign=top;spacingLeft=4;spacingRight=4;overflow=hidden;rotatable=0;points=[[0,0.5],[1,0.5]];portConstraint=eastwest;" vertex="1" parent="taI3V9Jy6adw3DAFcxq5-66">
          <mxGeometry y="132" width="230" height="26" as="geometry" />
        </mxCell>
        <mxCell id="taI3V9Jy6adw3DAFcxq5-72" value="getStrankaIds(): List&lt;int&gt;" style="text;align=left;verticalAlign=top;spacingLeft=4;spacingRight=4;overflow=hidden;rotatable=0;points=[[0,0.5],[1,0.5]];portConstraint=eastwest;" vertex="1" parent="taI3V9Jy6adw3DAFcxq5-66">
          <mxGeometry y="158" width="230" height="26" as="geometry" />
        </mxCell>
        <mxCell id="taI3V9Jy6adw3DAFcxq5-73" value="dodajPotpis(int id): boolean" style="text;align=left;verticalAlign=top;spacingLeft=4;spacingRight=4;overflow=hidden;rotatable=0;points=[[0,0.5],[1,0.5]];portConstraint=eastwest;" vertex="1" parent="taI3V9Jy6adw3DAFcxq5-66">
          <mxGeometry y="184" width="230" height="26" as="geometry" />
        </mxCell>
        <mxCell id="taI3V9Jy6adw3DAFcxq5-74" value="" style="endArrow=open;endFill=1;endSize=12;html=1;rounded=0;exitX=0.503;exitY=1;exitDx=0;exitDy=0;exitPerimeter=0;entryX=0.864;entryY=0.993;entryDx=0;entryDy=0;entryPerimeter=0;" edge="1" parent="WIyWlLk6GJQsqaUBKTNV-1" target="taI3V9Jy6adw3DAFcxq5-76">
          <mxGeometry width="160" relative="1" as="geometry">
            <mxPoint x="1166" y="416" as="sourcePoint" />
            <mxPoint x="1350" y="446" as="targetPoint" />
          </mxGeometry>
        </mxCell>
        <mxCell id="taI3V9Jy6adw3DAFcxq5-75" value="&lt;div&gt;&lt;br&gt;&lt;/div&gt;strankaLogic" style="text;html=1;align=center;verticalAlign=middle;resizable=0;points=[];autosize=1;" vertex="1" parent="WIyWlLk6GJQsqaUBKTNV-1">
          <mxGeometry x="1155" y="461" width="100" height="40" as="geometry" />
        </mxCell>
        <mxCell id="taI3V9Jy6adw3DAFcxq5-76" value="1" style="text;html=1;align=center;verticalAlign=middle;resizable=0;points=[];autosize=1;" vertex="1" parent="WIyWlLk6GJQsqaUBKTNV-1">
          <mxGeometry x="1140" y="466" width="30" height="30" as="geometry" />
        </mxCell>
        <mxCell id="taI3V9Jy6adw3DAFcxq5-77" value="StrankaLogicImpl" style="swimlane;fontStyle=2;align=center;verticalAlign=top;childLayout=stackLayout;horizontal=1;startSize=26;horizontalStack=0;resizeParent=1;resizeLast=0;collapsible=1;marginBottom=0;rounded=0;shadow=0;strokeWidth=1;fillColor=#d5e8d4;strokeColor=#82b366;" vertex="1" parent="WIyWlLk6GJQsqaUBKTNV-1">
          <mxGeometry x="850" y="790" width="230" height="230" as="geometry">
            <mxRectangle x="230" y="140" width="160" height="26" as="alternateBounds" />
          </mxGeometry>
        </mxCell>
        <mxCell id="taI3V9Jy6adw3DAFcxq5-78" value="em: EntityManager" style="text;align=left;verticalAlign=top;spacingLeft=4;spacingRight=4;overflow=hidden;rotatable=0;points=[[0,0.5],[1,0.5]];portConstraint=eastwest;" vertex="1" parent="taI3V9Jy6adw3DAFcxq5-77">
          <mxGeometry y="26" width="230" height="26" as="geometry" />
        </mxCell>
        <mxCell id="taI3V9Jy6adw3DAFcxq5-79" value="" style="line;html=1;strokeWidth=1;align=left;verticalAlign=middle;spacingTop=-1;spacingLeft=3;spacingRight=3;rotatable=0;labelPosition=right;points=[];portConstraint=eastwest;" vertex="1" parent="taI3V9Jy6adw3DAFcxq5-77">
          <mxGeometry y="52" width="230" height="8" as="geometry" />
        </mxCell>
        <mxCell id="taI3V9Jy6adw3DAFcxq5-80" value="addStranka(string naziv, string nosilac,Â &#xa;int skupljeniPotpisi, int brojClanova): bool" style="text;align=left;verticalAlign=top;spacingLeft=4;spacingRight=4;overflow=hidden;rotatable=0;points=[[0,0.5],[1,0.5]];portConstraint=eastwest;" vertex="1" parent="taI3V9Jy6adw3DAFcxq5-77">
          <mxGeometry y="60" width="230" height="40" as="geometry" />
        </mxCell>
        <mxCell id="taI3V9Jy6adw3DAFcxq5-81" value="getStranka(int id): Stranka" style="text;align=left;verticalAlign=top;spacingLeft=4;spacingRight=4;overflow=hidden;rotatable=0;points=[[0,0.5],[1,0.5]];portConstraint=eastwest;" vertex="1" parent="taI3V9Jy6adw3DAFcxq5-77">
          <mxGeometry y="100" width="230" height="26" as="geometry" />
        </mxCell>
        <mxCell id="taI3V9Jy6adw3DAFcxq5-82" value="getGlasacByNaziv(string naziv): Stranka" style="text;align=left;verticalAlign=top;spacingLeft=4;spacingRight=4;overflow=hidden;rotatable=0;points=[[0,0.5],[1,0.5]];portConstraint=eastwest;" vertex="1" parent="taI3V9Jy6adw3DAFcxq5-77">
          <mxGeometry y="126" width="230" height="26" as="geometry" />
        </mxCell>
        <mxCell id="taI3V9Jy6adw3DAFcxq5-83" value="getStranke(): List&lt;Stranka&gt;" style="text;align=left;verticalAlign=top;spacingLeft=4;spacingRight=4;overflow=hidden;rotatable=0;points=[[0,0.5],[1,0.5]];portConstraint=eastwest;" vertex="1" parent="taI3V9Jy6adw3DAFcxq5-77">
          <mxGeometry y="152" width="230" height="26" as="geometry" />
        </mxCell>
        <mxCell id="taI3V9Jy6adw3DAFcxq5-84" value="getStrankaIds(): List&lt;int&gt;" style="text;align=left;verticalAlign=top;spacingLeft=4;spacingRight=4;overflow=hidden;rotatable=0;points=[[0,0.5],[1,0.5]];portConstraint=eastwest;" vertex="1" parent="taI3V9Jy6adw3DAFcxq5-77">
          <mxGeometry y="178" width="230" height="26" as="geometry" />
        </mxCell>
        <mxCell id="taI3V9Jy6adw3DAFcxq5-85" value="dodajPotpis(int id): boolean" style="text;align=left;verticalAlign=top;spacingLeft=4;spacingRight=4;overflow=hidden;rotatable=0;points=[[0,0.5],[1,0.5]];portConstraint=eastwest;" vertex="1" parent="taI3V9Jy6adw3DAFcxq5-77">
          <mxGeometry y="204" width="230" height="26" as="geometry" />
        </mxCell>
        <mxCell id="taI3V9Jy6adw3DAFcxq5-86" value="" style="endArrow=block;dashed=1;endFill=0;endSize=12;html=1;rounded=0;entryX=0.185;entryY=1.057;entryDx=0;entryDy=0;entryPerimeter=0;exitX=0.738;exitY=-0.005;exitDx=0;exitDy=0;exitPerimeter=0;" edge="1" parent="WIyWlLk6GJQsqaUBKTNV-1" source="taI3V9Jy6adw3DAFcxq5-77" target="taI3V9Jy6adw3DAFcxq5-73">
          <mxGeometry width="160" relative="1" as="geometry">
            <mxPoint x="960" y="910" as="sourcePoint" />
            <mxPoint x="1120" y="910" as="targetPoint" />
            <Array as="points">
              <mxPoint x="1020" y="760" />
              <mxPoint x="1110" y="760" />
            </Array>
          </mxGeometry>
        </mxCell>
        <mxCell id="taI3V9Jy6adw3DAFcxq5-87" value="&lt;&lt;Interface&gt;&gt;&#xa;ListicLogic" style="swimlane;fontStyle=2;align=center;verticalAlign=top;childLayout=stackLayout;horizontal=1;startSize=40;horizontalStack=0;resizeParent=1;resizeLast=0;collapsible=1;marginBottom=0;rounded=0;shadow=0;strokeWidth=1;fillColor=#f8cecc;strokeColor=#b85450;" vertex="1" parent="WIyWlLk6GJQsqaUBKTNV-1">
          <mxGeometry x="450" y="360" width="250" height="180" as="geometry">
            <mxRectangle x="230" y="140" width="160" height="26" as="alternateBounds" />
          </mxGeometry>
        </mxCell>
        <mxCell id="taI3V9Jy6adw3DAFcxq5-88" value="dodajListic(string stranka, string jmbg): void" style="text;align=left;verticalAlign=top;spacingLeft=4;spacingRight=4;overflow=hidden;rotatable=0;points=[[0,0.5],[1,0.5]];portConstraint=eastwest;" vertex="1" parent="taI3V9Jy6adw3DAFcxq5-87">
          <mxGeometry y="40" width="250" height="30" as="geometry" />
        </mxCell>
        <mxCell id="taI3V9Jy6adw3DAFcxq5-89" value="dodajListic(int idStranke, string jmbg): void" style="text;align=left;verticalAlign=top;spacingLeft=4;spacingRight=4;overflow=hidden;rotatable=0;points=[[0,0.5],[1,0.5]];portConstraint=eastwest;" vertex="1" parent="taI3V9Jy6adw3DAFcxq5-87">
          <mxGeometry y="70" width="250" height="26" as="geometry" />
        </mxCell>
        <mxCell id="taI3V9Jy6adw3DAFcxq5-90" value="countIzlaznost(): double" style="text;align=left;verticalAlign=top;spacingLeft=4;spacingRight=4;overflow=hidden;rotatable=0;points=[[0,0.5],[1,0.5]];portConstraint=eastwest;" vertex="1" parent="taI3V9Jy6adw3DAFcxq5-87">
          <mxGeometry y="96" width="250" height="26" as="geometry" />
        </mxCell>
        <mxCell id="taI3V9Jy6adw3DAFcxq5-91" value="countGlasovi(): int" style="text;align=left;verticalAlign=top;spacingLeft=4;spacingRight=4;overflow=hidden;rotatable=0;points=[[0,0.5],[1,0.5]];portConstraint=eastwest;" vertex="1" parent="taI3V9Jy6adw3DAFcxq5-87">
          <mxGeometry y="122" width="250" height="26" as="geometry" />
        </mxCell>
        <mxCell id="taI3V9Jy6adw3DAFcxq5-92" value="getListici(): List&lt;GlasackiListic&gt;" style="text;align=left;verticalAlign=top;spacingLeft=4;spacingRight=4;overflow=hidden;rotatable=0;points=[[0,0.5],[1,0.5]];portConstraint=eastwest;" vertex="1" parent="taI3V9Jy6adw3DAFcxq5-87">
          <mxGeometry y="148" width="250" height="22" as="geometry" />
        </mxCell>
        <mxCell id="taI3V9Jy6adw3DAFcxq5-95" value="" style="endArrow=open;endFill=1;endSize=12;html=1;rounded=0;exitX=0.503;exitY=1;exitDx=0;exitDy=0;exitPerimeter=0;entryX=0.864;entryY=0.993;entryDx=0;entryDy=0;entryPerimeter=0;" edge="1" parent="WIyWlLk6GJQsqaUBKTNV-1" target="taI3V9Jy6adw3DAFcxq5-97">
          <mxGeometry width="160" relative="1" as="geometry">
            <mxPoint x="621" y="280" as="sourcePoint" />
            <mxPoint x="805" y="310" as="targetPoint" />
          </mxGeometry>
        </mxCell>
        <mxCell id="taI3V9Jy6adw3DAFcxq5-96" value="&lt;div&gt;&lt;br&gt;&lt;/div&gt;listicLogic" style="text;html=1;align=center;verticalAlign=middle;resizable=0;points=[];autosize=1;" vertex="1" parent="WIyWlLk6GJQsqaUBKTNV-1">
          <mxGeometry x="620" y="325" width="80" height="40" as="geometry" />
        </mxCell>
        <mxCell id="taI3V9Jy6adw3DAFcxq5-97" value="1" style="text;html=1;align=center;verticalAlign=middle;resizable=0;points=[];autosize=1;" vertex="1" parent="WIyWlLk6GJQsqaUBKTNV-1">
          <mxGeometry x="595" y="330" width="30" height="30" as="geometry" />
        </mxCell>
        <mxCell id="taI3V9Jy6adw3DAFcxq5-98" value="ListicLogicImpl" style="swimlane;fontStyle=2;align=center;verticalAlign=top;childLayout=stackLayout;horizontal=1;startSize=26;horizontalStack=0;resizeParent=1;resizeLast=0;collapsible=1;marginBottom=0;rounded=0;shadow=0;strokeWidth=1;fillColor=#d5e8d4;strokeColor=#82b366;" vertex="1" parent="WIyWlLk6GJQsqaUBKTNV-1">
          <mxGeometry x="450" y="630" width="250" height="190" as="geometry">
            <mxRectangle x="230" y="140" width="160" height="26" as="alternateBounds" />
          </mxGeometry>
        </mxCell>
        <mxCell id="taI3V9Jy6adw3DAFcxq5-99" value="em: EntityManager" style="text;align=left;verticalAlign=top;spacingLeft=4;spacingRight=4;overflow=hidden;rotatable=0;points=[[0,0.5],[1,0.5]];portConstraint=eastwest;" vertex="1" parent="taI3V9Jy6adw3DAFcxq5-98">
          <mxGeometry y="26" width="250" height="26" as="geometry" />
        </mxCell>
        <mxCell id="taI3V9Jy6adw3DAFcxq5-100" value="" style="line;html=1;strokeWidth=1;align=left;verticalAlign=middle;spacingTop=-1;spacingLeft=3;spacingRight=3;rotatable=0;labelPosition=right;points=[];portConstraint=eastwest;" vertex="1" parent="taI3V9Jy6adw3DAFcxq5-98">
          <mxGeometry y="52" width="250" height="8" as="geometry" />
        </mxCell>
        <mxCell id="taI3V9Jy6adw3DAFcxq5-101" value="dodajListic(string stranka, string jmbg): void" style="text;align=left;verticalAlign=top;spacingLeft=4;spacingRight=4;overflow=hidden;rotatable=0;points=[[0,0.5],[1,0.5]];portConstraint=eastwest;" vertex="1" parent="taI3V9Jy6adw3DAFcxq5-98">
          <mxGeometry y="60" width="250" height="26" as="geometry" />
        </mxCell>
        <mxCell id="taI3V9Jy6adw3DAFcxq5-102" value="dodajListic(int idStranke, string jmbg): void" style="text;align=left;verticalAlign=top;spacingLeft=4;spacingRight=4;overflow=hidden;rotatable=0;points=[[0,0.5],[1,0.5]];portConstraint=eastwest;" vertex="1" parent="taI3V9Jy6adw3DAFcxq5-98">
          <mxGeometry y="86" width="250" height="26" as="geometry" />
        </mxCell>
        <mxCell id="taI3V9Jy6adw3DAFcxq5-103" value="countIzlaznost(): double" style="text;align=left;verticalAlign=top;spacingLeft=4;spacingRight=4;overflow=hidden;rotatable=0;points=[[0,0.5],[1,0.5]];portConstraint=eastwest;" vertex="1" parent="taI3V9Jy6adw3DAFcxq5-98">
          <mxGeometry y="112" width="250" height="26" as="geometry" />
        </mxCell>
        <mxCell id="taI3V9Jy6adw3DAFcxq5-104" value="getListici(): List&lt;GlasackiListic&gt;" style="text;align=left;verticalAlign=top;spacingLeft=4;spacingRight=4;overflow=hidden;rotatable=0;points=[[0,0.5],[1,0.5]];portConstraint=eastwest;" vertex="1" parent="taI3V9Jy6adw3DAFcxq5-98">
          <mxGeometry y="138" width="250" height="26" as="geometry" />
        </mxCell>
        <mxCell id="taI3V9Jy6adw3DAFcxq5-105" value="countGlasovi(): int" style="text;align=left;verticalAlign=top;spacingLeft=4;spacingRight=4;overflow=hidden;rotatable=0;points=[[0,0.5],[1,0.5]];portConstraint=eastwest;" vertex="1" parent="taI3V9Jy6adw3DAFcxq5-98">
          <mxGeometry y="164" width="250" height="26" as="geometry" />
        </mxCell>
        <mxCell id="taI3V9Jy6adw3DAFcxq5-107" value="" style="endArrow=block;dashed=1;endFill=0;endSize=12;html=1;rounded=0;exitX=0.5;exitY=0;exitDx=0;exitDy=0;entryX=0.5;entryY=1;entryDx=0;entryDy=0;" edge="1" parent="WIyWlLk6GJQsqaUBKTNV-1" source="taI3V9Jy6adw3DAFcxq5-98" target="taI3V9Jy6adw3DAFcxq5-87">
          <mxGeometry width="160" relative="1" as="geometry">
            <mxPoint x="620" y="550" as="sourcePoint" />
            <mxPoint x="780" y="550" as="targetPoint" />
          </mxGeometry>
        </mxCell>
        <mxCell id="taI3V9Jy6adw3DAFcxq5-108" value="" style="endArrow=open;endFill=1;endSize=12;html=1;rounded=0;exitX=0;exitY=0.5;exitDx=0;exitDy=0;entryX=0.75;entryY=0;entryDx=0;entryDy=0;" edge="1" parent="WIyWlLk6GJQsqaUBKTNV-1" source="taI3V9Jy6adw3DAFcxq5-99" target="taI3V9Jy6adw3DAFcxq5-25">
          <mxGeometry width="160" relative="1" as="geometry">
            <mxPoint x="590" y="760" as="sourcePoint" />
            <mxPoint x="750" y="760" as="targetPoint" />
          </mxGeometry>
        </mxCell>
        <mxCell id="taI3V9Jy6adw3DAFcxq5-109" value="" style="endArrow=open;endFill=1;endSize=12;html=1;rounded=0;exitX=1;exitY=0.5;exitDx=0;exitDy=0;entryX=0;entryY=0.5;entryDx=0;entryDy=0;" edge="1" parent="WIyWlLk6GJQsqaUBKTNV-1" source="taI3V9Jy6adw3DAFcxq5-99" target="taI3V9Jy6adw3DAFcxq5-78">
          <mxGeometry width="160" relative="1" as="geometry">
            <mxPoint x="590" y="760" as="sourcePoint" />
            <mxPoint x="750" y="760" as="targetPoint" />
          </mxGeometry>
        </mxCell>
        <mxCell id="taI3V9Jy6adw3DAFcxq5-110" value="1" style="text;html=1;align=center;verticalAlign=middle;resizable=0;points=[];autosize=1;strokeColor=none;fillColor=none;" vertex="1" parent="WIyWlLk6GJQsqaUBKTNV-1">
          <mxGeometry x="247" y="738" width="30" height="30" as="geometry" />
        </mxCell>
        <mxCell id="taI3V9Jy6adw3DAFcxq5-111" value="gli" style="text;html=1;align=center;verticalAlign=middle;resizable=0;points=[];autosize=1;strokeColor=none;fillColor=none;" vertex="1" parent="WIyWlLk6GJQsqaUBKTNV-1">
          <mxGeometry x="282" y="738" width="40" height="30" as="geometry" />
        </mxCell>
        <mxCell id="taI3V9Jy6adw3DAFcxq5-112" value="1" style="text;html=1;align=center;verticalAlign=middle;resizable=0;points=[];autosize=1;strokeColor=none;fillColor=none;" vertex="1" parent="WIyWlLk6GJQsqaUBKTNV-1">
          <mxGeometry x="880" y="760" width="30" height="30" as="geometry" />
        </mxCell>
        <mxCell id="taI3V9Jy6adw3DAFcxq5-113" value="sli" style="text;html=1;align=center;verticalAlign=middle;resizable=0;points=[];autosize=1;strokeColor=none;fillColor=none;" vertex="1" parent="WIyWlLk6GJQsqaUBKTNV-1">
          <mxGeometry x="810" y="820" width="40" height="30" as="geometry" />
        </mxCell>
        <mxCell id="taI3V9Jy6adw3DAFcxq5-114" value="Glasac" style="swimlane;fontStyle=2;align=center;verticalAlign=top;childLayout=stackLayout;horizontal=1;startSize=26;horizontalStack=0;resizeParent=1;resizeLast=0;collapsible=1;marginBottom=0;rounded=0;shadow=0;strokeWidth=1;fillColor=#d5e8d4;strokeColor=#82b366;" vertex="1" parent="WIyWlLk6GJQsqaUBKTNV-1">
          <mxGeometry x="-150" y="530" width="170" height="156" as="geometry">
            <mxRectangle x="230" y="140" width="160" height="26" as="alternateBounds" />
          </mxGeometry>
        </mxCell>
        <mxCell id="taI3V9Jy6adw3DAFcxq5-115" value="id: int" style="text;align=left;verticalAlign=top;spacingLeft=4;spacingRight=4;overflow=hidden;rotatable=0;points=[[0,0.5],[1,0.5]];portConstraint=eastwest;" vertex="1" parent="taI3V9Jy6adw3DAFcxq5-114">
          <mxGeometry y="26" width="170" height="26" as="geometry" />
        </mxCell>
        <mxCell id="taI3V9Jy6adw3DAFcxq5-116" value="ime: string" style="text;align=left;verticalAlign=top;spacingLeft=4;spacingRight=4;overflow=hidden;rotatable=0;points=[[0,0.5],[1,0.5]];portConstraint=eastwest;rounded=0;shadow=0;html=0;" vertex="1" parent="taI3V9Jy6adw3DAFcxq5-114">
          <mxGeometry y="52" width="170" height="26" as="geometry" />
        </mxCell>
        <mxCell id="taI3V9Jy6adw3DAFcxq5-117" value="prezime: string&#xa;" style="text;align=left;verticalAlign=top;spacingLeft=4;spacingRight=4;overflow=hidden;rotatable=0;points=[[0,0.5],[1,0.5]];portConstraint=eastwest;rounded=0;shadow=0;html=0;" vertex="1" parent="taI3V9Jy6adw3DAFcxq5-114">
          <mxGeometry y="78" width="170" height="26" as="geometry" />
        </mxCell>
        <mxCell id="taI3V9Jy6adw3DAFcxq5-118" value="funkcioner: boolean" style="text;align=left;verticalAlign=top;spacingLeft=4;spacingRight=4;overflow=hidden;rotatable=0;points=[[0,0.5],[1,0.5]];portConstraint=eastwest;rounded=0;shadow=0;html=0;" vertex="1" parent="taI3V9Jy6adw3DAFcxq5-114">
          <mxGeometry y="104" width="170" height="26" as="geometry" />
        </mxCell>
        <mxCell id="taI3V9Jy6adw3DAFcxq5-119" value="glasao: boolean" style="text;align=left;verticalAlign=top;spacingLeft=4;spacingRight=4;overflow=hidden;rotatable=0;points=[[0,0.5],[1,0.5]];portConstraint=eastwest;rounded=0;shadow=0;html=0;" vertex="1" parent="taI3V9Jy6adw3DAFcxq5-114">
          <mxGeometry y="130" width="170" height="26" as="geometry" />
        </mxCell>
        <mxCell id="taI3V9Jy6adw3DAFcxq5-127" value="IzboriKontroler" style="swimlane;fontStyle=2;align=center;verticalAlign=top;childLayout=stackLayout;horizontal=1;startSize=26;horizontalStack=0;resizeParent=1;resizeLast=0;collapsible=1;marginBottom=0;rounded=0;shadow=0;strokeWidth=1;fillColor=#dae8fc;strokeColor=#6c8ebf;" vertex="1" parent="WIyWlLk6GJQsqaUBKTNV-1">
          <mxGeometry x="790" y="170" width="190" height="52" as="geometry">
            <mxRectangle x="230" y="140" width="160" height="26" as="alternateBounds" />
          </mxGeometry>
        </mxCell>
        <mxCell id="taI3V9Jy6adw3DAFcxq5-132" value="proglasiPobednika(): Stranka" style="text;align=left;verticalAlign=top;spacingLeft=4;spacingRight=4;overflow=hidden;rotatable=0;points=[[0,0.5],[1,0.5]];portConstraint=eastwest;" vertex="1" parent="taI3V9Jy6adw3DAFcxq5-127">
          <mxGeometry y="26" width="190" height="26" as="geometry" />
        </mxCell>
        <mxCell id="taI3V9Jy6adw3DAFcxq5-136" value="&lt;&lt;Interface&gt;&gt;&#xa;IzboriLogic" style="swimlane;fontStyle=2;align=center;verticalAlign=top;childLayout=stackLayout;horizontal=1;startSize=40;horizontalStack=0;resizeParent=1;resizeLast=0;collapsible=1;marginBottom=0;rounded=0;shadow=0;strokeWidth=1;fillColor=#f8cecc;strokeColor=#b85450;" vertex="1" parent="WIyWlLk6GJQsqaUBKTNV-1">
          <mxGeometry x="770" y="302" width="250" height="70" as="geometry">
            <mxRectangle x="230" y="140" width="160" height="26" as="alternateBounds" />
          </mxGeometry>
        </mxCell>
        <mxCell id="taI3V9Jy6adw3DAFcxq5-137" value="proglasiPobednika(): Stranka" style="text;align=left;verticalAlign=top;spacingLeft=4;spacingRight=4;overflow=hidden;rotatable=0;points=[[0,0.5],[1,0.5]];portConstraint=eastwest;" vertex="1" parent="taI3V9Jy6adw3DAFcxq5-136">
          <mxGeometry y="40" width="250" height="30" as="geometry" />
        </mxCell>
        <mxCell id="taI3V9Jy6adw3DAFcxq5-142" value="" style="endArrow=open;endFill=1;endSize=12;html=1;rounded=0;exitX=0.503;exitY=1;exitDx=0;exitDy=0;exitPerimeter=0;entryX=0.864;entryY=0.993;entryDx=0;entryDy=0;entryPerimeter=0;" edge="1" parent="WIyWlLk6GJQsqaUBKTNV-1" target="taI3V9Jy6adw3DAFcxq5-144">
          <mxGeometry width="160" relative="1" as="geometry">
            <mxPoint x="876" y="222" as="sourcePoint" />
            <mxPoint x="1060" y="252" as="targetPoint" />
          </mxGeometry>
        </mxCell>
        <mxCell id="taI3V9Jy6adw3DAFcxq5-143" value="&lt;div&gt;&lt;br&gt;&lt;/div&gt;izboriLogic" style="text;html=1;align=center;verticalAlign=middle;resizable=0;points=[];autosize=1;" vertex="1" parent="WIyWlLk6GJQsqaUBKTNV-1">
          <mxGeometry x="870" y="267" width="90" height="40" as="geometry" />
        </mxCell>
        <mxCell id="taI3V9Jy6adw3DAFcxq5-144" value="1" style="text;html=1;align=center;verticalAlign=middle;resizable=0;points=[];autosize=1;" vertex="1" parent="WIyWlLk6GJQsqaUBKTNV-1">
          <mxGeometry x="850" y="272" width="30" height="30" as="geometry" />
        </mxCell>
        <mxCell id="taI3V9Jy6adw3DAFcxq5-145" value="IzboriLogicImpl" style="swimlane;fontStyle=2;align=center;verticalAlign=top;childLayout=stackLayout;horizontal=1;startSize=26;horizontalStack=0;resizeParent=1;resizeLast=0;collapsible=1;marginBottom=0;rounded=0;shadow=0;strokeWidth=1;fillColor=#d5e8d4;strokeColor=#82b366;" vertex="1" parent="WIyWlLk6GJQsqaUBKTNV-1">
          <mxGeometry x="770" y="440" width="250" height="90" as="geometry">
            <mxRectangle x="230" y="140" width="160" height="26" as="alternateBounds" />
          </mxGeometry>
        </mxCell>
        <mxCell id="taI3V9Jy6adw3DAFcxq5-146" value="em: EntityManager" style="text;align=left;verticalAlign=top;spacingLeft=4;spacingRight=4;overflow=hidden;rotatable=0;points=[[0,0.5],[1,0.5]];portConstraint=eastwest;" vertex="1" parent="taI3V9Jy6adw3DAFcxq5-145">
          <mxGeometry y="26" width="250" height="26" as="geometry" />
        </mxCell>
        <mxCell id="taI3V9Jy6adw3DAFcxq5-147" value="" style="line;html=1;strokeWidth=1;align=left;verticalAlign=middle;spacingTop=-1;spacingLeft=3;spacingRight=3;rotatable=0;labelPosition=right;points=[];portConstraint=eastwest;" vertex="1" parent="taI3V9Jy6adw3DAFcxq5-145">
          <mxGeometry y="52" width="250" height="8" as="geometry" />
        </mxCell>
        <mxCell id="taI3V9Jy6adw3DAFcxq5-148" value="proglasiPobednika(): Stranka" style="text;align=left;verticalAlign=top;spacingLeft=4;spacingRight=4;overflow=hidden;rotatable=0;points=[[0,0.5],[1,0.5]];portConstraint=eastwest;" vertex="1" parent="taI3V9Jy6adw3DAFcxq5-145">
          <mxGeometry y="60" width="250" height="26" as="geometry" />
        </mxCell>
        <mxCell id="taI3V9Jy6adw3DAFcxq5-153" value="" style="endArrow=block;dashed=1;endFill=0;endSize=12;html=1;rounded=0;entryX=0.439;entryY=0.958;entryDx=0;entryDy=0;entryPerimeter=0;exitX=0.434;exitY=-0.01;exitDx=0;exitDy=0;exitPerimeter=0;" edge="1" parent="WIyWlLk6GJQsqaUBKTNV-1" source="taI3V9Jy6adw3DAFcxq5-145" target="taI3V9Jy6adw3DAFcxq5-137">
          <mxGeometry width="160" relative="1" as="geometry">
            <mxPoint x="830" y="460" as="sourcePoint" />
            <mxPoint x="990" y="460" as="targetPoint" />
          </mxGeometry>
        </mxCell>
        <mxCell id="taI3V9Jy6adw3DAFcxq5-154" value="" style="endArrow=open;endFill=1;endSize=12;html=1;rounded=0;exitX=0;exitY=0.5;exitDx=0;exitDy=0;entryX=0.75;entryY=0;entryDx=0;entryDy=0;" edge="1" parent="WIyWlLk6GJQsqaUBKTNV-1" source="taI3V9Jy6adw3DAFcxq5-148" target="taI3V9Jy6adw3DAFcxq5-98">
          <mxGeometry width="160" relative="1" as="geometry">
            <mxPoint x="780" y="590" as="sourcePoint" />
            <mxPoint x="940" y="590" as="targetPoint" />
          </mxGeometry>
        </mxCell>
        <mxCell id="taI3V9Jy6adw3DAFcxq5-155" value="" style="endArrow=open;endFill=1;endSize=12;html=1;rounded=0;entryX=0.25;entryY=0;entryDx=0;entryDy=0;" edge="1" parent="WIyWlLk6GJQsqaUBKTNV-1" target="taI3V9Jy6adw3DAFcxq5-77">
          <mxGeometry width="160" relative="1" as="geometry">
            <mxPoint x="910" y="530" as="sourcePoint" />
            <mxPoint x="940" y="590" as="targetPoint" />
          </mxGeometry>
        </mxCell>
        <mxCell id="taI3V9Jy6adw3DAFcxq5-156" value="1" style="text;html=1;align=center;verticalAlign=middle;resizable=0;points=[];autosize=1;strokeColor=none;fillColor=none;" vertex="1" parent="WIyWlLk6GJQsqaUBKTNV-1">
          <mxGeometry x="820" y="790" width="30" height="30" as="geometry" />
        </mxCell>
        <mxCell id="taI3V9Jy6adw3DAFcxq5-157" value="sli" style="text;html=1;align=center;verticalAlign=middle;resizable=0;points=[];autosize=1;strokeColor=none;fillColor=none;" vertex="1" parent="WIyWlLk6GJQsqaUBKTNV-1">
          <mxGeometry x="910" y="768" width="40" height="30" as="geometry" />
        </mxCell>
        <mxCell id="taI3V9Jy6adw3DAFcxq5-158" value="1" style="text;html=1;align=center;verticalAlign=middle;resizable=0;points=[];autosize=1;strokeColor=none;fillColor=none;" vertex="1" parent="WIyWlLk6GJQsqaUBKTNV-1">
          <mxGeometry x="617" y="598" width="30" height="30" as="geometry" />
        </mxCell>
        <mxCell id="taI3V9Jy6adw3DAFcxq5-159" value="lli" style="text;html=1;align=center;verticalAlign=middle;resizable=0;points=[];autosize=1;strokeColor=none;fillColor=none;" vertex="1" parent="WIyWlLk6GJQsqaUBKTNV-1">
          <mxGeometry x="657" y="608" width="30" height="30" as="geometry" />
        </mxCell>
        <mxCell id="taI3V9Jy6adw3DAFcxq5-163" value="" style="endArrow=open;endSize=12;dashed=1;html=1;rounded=0;entryX=1;entryY=0.5;entryDx=0;entryDy=0;exitX=0;exitY=0.5;exitDx=0;exitDy=0;" edge="1" parent="WIyWlLk6GJQsqaUBKTNV-1" source="taI3V9Jy6adw3DAFcxq5-16" target="taI3V9Jy6adw3DAFcxq5-116">
          <mxGeometry width="160" relative="1" as="geometry">
            <mxPoint x="-30" y="640" as="sourcePoint" />
            <mxPoint x="130" y="640" as="targetPoint" />
          </mxGeometry>
        </mxCell>
        <mxCell id="taI3V9Jy6adw3DAFcxq5-164" value="Stranka" style="swimlane;fontStyle=2;align=center;verticalAlign=top;childLayout=stackLayout;horizontal=1;startSize=26;horizontalStack=0;resizeParent=1;resizeLast=0;collapsible=1;marginBottom=0;rounded=0;shadow=0;strokeWidth=1;fillColor=#d5e8d4;strokeColor=#82b366;" vertex="1" parent="WIyWlLk6GJQsqaUBKTNV-1">
          <mxGeometry x="1140" y="798" width="170" height="156" as="geometry">
            <mxRectangle x="230" y="140" width="160" height="26" as="alternateBounds" />
          </mxGeometry>
        </mxCell>
        <mxCell id="taI3V9Jy6adw3DAFcxq5-165" value="id: int" style="text;align=left;verticalAlign=top;spacingLeft=4;spacingRight=4;overflow=hidden;rotatable=0;points=[[0,0.5],[1,0.5]];portConstraint=eastwest;" vertex="1" parent="taI3V9Jy6adw3DAFcxq5-164">
          <mxGeometry y="26" width="170" height="26" as="geometry" />
        </mxCell>
        <mxCell id="taI3V9Jy6adw3DAFcxq5-166" value="naziv: string" style="text;align=left;verticalAlign=top;spacingLeft=4;spacingRight=4;overflow=hidden;rotatable=0;points=[[0,0.5],[1,0.5]];portConstraint=eastwest;rounded=0;shadow=0;html=0;" vertex="1" parent="taI3V9Jy6adw3DAFcxq5-164">
          <mxGeometry y="52" width="170" height="26" as="geometry" />
        </mxCell>
        <mxCell id="taI3V9Jy6adw3DAFcxq5-167" value="nosilacListe: string&#xa;" style="text;align=left;verticalAlign=top;spacingLeft=4;spacingRight=4;overflow=hidden;rotatable=0;points=[[0,0.5],[1,0.5]];portConstraint=eastwest;rounded=0;shadow=0;html=0;" vertex="1" parent="taI3V9Jy6adw3DAFcxq5-164">
          <mxGeometry y="78" width="170" height="26" as="geometry" />
        </mxCell>
        <mxCell id="taI3V9Jy6adw3DAFcxq5-168" value="skupljeniPotpisi: boolean" style="text;align=left;verticalAlign=top;spacingLeft=4;spacingRight=4;overflow=hidden;rotatable=0;points=[[0,0.5],[1,0.5]];portConstraint=eastwest;rounded=0;shadow=0;html=0;" vertex="1" parent="taI3V9Jy6adw3DAFcxq5-164">
          <mxGeometry y="104" width="170" height="26" as="geometry" />
        </mxCell>
        <mxCell id="taI3V9Jy6adw3DAFcxq5-169" value="brojClanova: boolean" style="text;align=left;verticalAlign=top;spacingLeft=4;spacingRight=4;overflow=hidden;rotatable=0;points=[[0,0.5],[1,0.5]];portConstraint=eastwest;rounded=0;shadow=0;html=0;" vertex="1" parent="taI3V9Jy6adw3DAFcxq5-164">
          <mxGeometry y="130" width="170" height="26" as="geometry" />
        </mxCell>
        <mxCell id="taI3V9Jy6adw3DAFcxq5-170" value="" style="endArrow=open;endSize=12;dashed=1;html=1;rounded=0;exitX=0.565;exitY=1.154;exitDx=0;exitDy=0;exitPerimeter=0;entryX=0.353;entryY=0.013;entryDx=0;entryDy=0;entryPerimeter=0;" edge="1" parent="WIyWlLk6GJQsqaUBKTNV-1" source="taI3V9Jy6adw3DAFcxq5-73" target="taI3V9Jy6adw3DAFcxq5-164">
          <mxGeometry width="160" relative="1" as="geometry">
            <mxPoint x="990" y="790" as="sourcePoint" />
            <mxPoint x="1150" y="790" as="targetPoint" />
          </mxGeometry>
        </mxCell>
        <mxCell id="taI3V9Jy6adw3DAFcxq5-171" value="GlasackiListic" style="swimlane;fontStyle=2;align=center;verticalAlign=top;childLayout=stackLayout;horizontal=1;startSize=26;horizontalStack=0;resizeParent=1;resizeLast=0;collapsible=1;marginBottom=0;rounded=0;shadow=0;strokeWidth=1;fillColor=#d5e8d4;strokeColor=#82b366;" vertex="1" parent="WIyWlLk6GJQsqaUBKTNV-1">
          <mxGeometry x="329" y="220" width="170" height="78" as="geometry">
            <mxRectangle x="230" y="140" width="160" height="26" as="alternateBounds" />
          </mxGeometry>
        </mxCell>
        <mxCell id="taI3V9Jy6adw3DAFcxq5-172" value="id: int" style="text;align=left;verticalAlign=top;spacingLeft=4;spacingRight=4;overflow=hidden;rotatable=0;points=[[0,0.5],[1,0.5]];portConstraint=eastwest;" vertex="1" parent="taI3V9Jy6adw3DAFcxq5-171">
          <mxGeometry y="26" width="170" height="26" as="geometry" />
        </mxCell>
        <mxCell id="taI3V9Jy6adw3DAFcxq5-173" value="strankaID: int" style="text;align=left;verticalAlign=top;spacingLeft=4;spacingRight=4;overflow=hidden;rotatable=0;points=[[0,0.5],[1,0.5]];portConstraint=eastwest;rounded=0;shadow=0;html=0;" vertex="1" parent="taI3V9Jy6adw3DAFcxq5-171">
          <mxGeometry y="52" width="170" height="26" as="geometry" />
        </mxCell>
        <mxCell id="taI3V9Jy6adw3DAFcxq5-177" value="" style="endArrow=open;endSize=12;dashed=1;html=1;rounded=0;entryX=0.657;entryY=1.06;entryDx=0;entryDy=0;entryPerimeter=0;exitX=0.25;exitY=0;exitDx=0;exitDy=0;" edge="1" parent="WIyWlLk6GJQsqaUBKTNV-1" source="taI3V9Jy6adw3DAFcxq5-87" target="taI3V9Jy6adw3DAFcxq5-173">
          <mxGeometry width="160" relative="1" as="geometry">
            <mxPoint x="500" y="330" as="sourcePoint" />
            <mxPoint x="660" y="330" as="targetPoint" />
          </mxGeometry>
        </mxCell>
      </root>
    </mxGraphModel>
  </diagram>
</mxfile>
